<svg width="170" height="40" viewBox="0 0 170 40" fill="none" xmlns="http://www.w3.org/2000/svg">
<g clip-path="url(#clip0_1_4627)">
<path d="M27.3178 14.9668H32.4807L32.485 32.6201L43.6793 32.7729L43.6965 37.1395H27.249L27.3264 14.9668H27.3178Z" fill="black"/>
<path d="M45.4248 14.9668H50.2653V28.7669C50.2653 32.7771 53.5282 32.5862 55.2305 32.5862C56.9328 32.5862 60.3461 32.3655 60.3461 28.7033V15.0474H64.9459L64.8213 29.6326C64.7654 36.2102 58.8759 37.4069 55.3208 37.4154C52.1998 37.4154 45.4334 36.9019 45.4334 30.5238L45.4248 14.9668Z" fill="black"/>
<path d="M66.9404 37.1353L69.2016 32.6456H79.1965C82.9881 32.6456 82.2057 30.248 80.254 29.1234C78.3023 27.9989 72.3484 27.4769 69.9367 24.8798C68.8749 23.4752 68.703 22.1894 69.077 20.1483C69.9367 17.5724 71.2264 15.9641 74.6354 15.2681L104.878 14.9541L107.027 19.3759H94.5606L94.4789 37.1226H89.5954L89.6771 19.2995L75.4694 19.4565C72.6794 19.4863 72.1678 22.8514 76.183 23.5686C80.1981 24.2857 83.4695 25.5673 85.1547 28.3681C85.9199 29.9637 86.0789 30.388 85.5115 32.9851C84.9054 35.7561 80.9805 37.1268 78.2808 37.1268L66.9404 37.1353Z" fill="black"/>
<path d="M94.5225 19.3889L100.549 24.8462L96.1517 40L109.345 31.4704L121.988 39.6902L118.454 25.2705L130.71 15.2727H114.688L109.736 0L107.539 5.11352L112.092 18.8415H120.341L114.293 23.5646L116.412 31.2412L109.581 27.1292L102.2 31.7038L104.711 24.1842L99.6854 19.3889H94.5225Z" fill="black"/>
<path d="M147.549 37.1357L149.81 32.646H159.792C163.231 31.8185 161.292 29.4718 160.682 29.2299C156.813 27.5791 152.944 27.4773 150.524 24.893C149.458 23.4883 149.286 22.2025 149.664 20.1614C150.524 17.5855 151.813 15.9772 155.222 15.2812H169.589V19.5248L156.095 19.4739C153.739 20.1062 154.556 23.2931 156.809 23.5859C161.941 24.9015 164.095 25.5847 165.776 28.3854C166.472 29.8792 166.266 31.4875 165.617 33.0534C164.409 36.1724 161.649 37.0084 158.954 37.1569L147.549 37.1357Z" fill="black"/>
<path d="M10.1396 14.9756H16.2827L25.0309 37.1228H19.4424L17.7443 33.1805H7.72798L6.00844 37.1525H0.419922L10.1396 14.9756ZM13.0973 19.7836L9.51201 30.0191H16.6868L13.0973 19.7836Z" fill="black"/>
<path d="M141.315 15.3828H133.646L126.66 20.9292L126.738 37.0548H131.385V30.1165H135.554L140.417 37.1354H145.786L140.752 29.1235C144.539 28.1899 149.814 19.8428 141.315 15.3828ZM138.521 25.5674H131.771V18.9899H138.461C142.351 21.1371 140.606 24.9436 138.521 25.5759V25.5674Z" fill="black"/>
</g>
<defs>
<clipPath id="clip0_1_4627">
<rect width="169.143" height="40" fill="white" transform="translate(0.428711)"/>
</clipPath>
</defs>
</svg>
