<svg width="131" height="31" viewBox="0 0 131 31" fill="none" xmlns="http://www.w3.org/2000/svg">
<g clip-path="url(#clip0_1_3380)">
<path d="M20.8257 11.5996H24.8244L24.8277 25.2809L33.4976 25.3993L33.5109 28.7835H20.7725L20.8324 11.5996H20.8257Z" fill="white"/>
<path d="M34.8496 11.5996H38.5986V22.2947C38.5986 25.4026 41.1256 25.2546 42.4441 25.2546C43.7625 25.2546 46.4061 25.0836 46.4061 22.2454V11.6621H49.9686L49.872 22.9656C49.8287 28.0632 45.2674 28.9907 42.514 28.9972C40.0968 28.9972 34.8563 28.5993 34.8563 23.6563L34.8496 11.5996Z" fill="white"/>
<path d="M51.5127 28.7803L53.264 25.3007H61.0049C63.9415 25.3007 63.3355 23.4426 61.824 22.5711C60.3124 21.6995 55.7011 21.295 53.8333 19.2823C53.0109 18.1937 52.8778 17.1972 53.1674 15.6153C53.8333 13.619 54.8321 12.3726 57.4724 11.8332L80.895 11.5898L82.5597 15.0168H72.9043L72.8411 28.7704H69.0588L69.1221 14.9576L58.1183 15.0792C55.9575 15.1023 55.5613 17.7103 58.671 18.2661C61.7807 18.8219 64.3144 19.8151 65.6195 21.9857C66.2122 23.2222 66.3353 23.5511 65.8959 25.5639C65.4264 27.7114 62.3866 28.7737 60.2957 28.7737L51.5127 28.7803Z" fill="white"/>
<path d="M72.875 15.0264L77.5429 19.2558L74.1369 31L84.3549 24.3896L94.1468 30.7599L91.41 19.5847L100.902 11.8363H88.4934L84.6579 0L82.9565 3.96297L86.4824 14.6022H92.8716L88.1871 18.2626L89.8285 24.212L84.538 21.0251L78.8214 24.5704L80.7658 18.7427L76.8737 15.0264H72.875Z" fill="white"/>
<path d="M113.943 28.78L115.695 25.3004H123.426C126.089 24.6591 124.588 22.8404 124.115 22.653C121.118 21.3736 118.122 21.2947 116.247 19.2918C115.422 18.2033 115.288 17.2068 115.581 15.6249C116.247 13.6286 117.246 12.3821 119.886 11.8428H131.013V15.1315L120.562 15.0921C118.738 15.5821 119.37 18.052 121.115 18.2789C125.09 19.2984 126.758 19.8279 128.06 21.9985C128.6 23.1562 128.44 24.4026 127.937 25.6162C127.001 28.0334 124.864 28.6813 122.776 28.7964L113.943 28.78Z" fill="white"/>
<path d="M7.52102 11.6064H12.2788L19.0542 28.7706H14.7259L13.4108 25.7153H5.65321L4.32143 28.7936H-0.00683594L7.52102 11.6064ZM9.81167 15.3326L7.03492 23.2652H12.5918L9.81167 15.3326Z" fill="white"/>
<path d="M109.116 11.9219H103.176L97.7656 16.2203L97.8256 28.7177H101.425V23.3405H104.654L108.42 28.7801H112.578L108.68 22.5709C111.613 21.8474 115.698 15.3784 109.116 11.9219ZM106.952 19.8149H101.724V14.7173H106.905C109.918 16.3815 108.566 19.3315 106.952 19.8215V19.8149Z" fill="white"/>
</g>
<defs>
<clipPath id="clip0_1_3380">
<rect width="131" height="31" fill="white"/>
</clipPath>
</defs>
</svg>
