<svg width="4" height="8" viewBox="0 0 4 8" fill="none" xmlns="http://www.w3.org/2000/svg">
<path d="M0.664607 7.99996C0.749968 8.00025 0.834308 7.98141 0.911432 7.94483C0.988556 7.90824 1.0565 7.85484 1.11028 7.78855L3.87002 4.3603C3.95406 4.25807 4 4.12983 4 3.99748C4 3.86514 3.95406 3.7369 3.87002 3.63466L1.01315 0.20641C0.916161 0.0897262 0.776797 0.0163477 0.62571 0.00241777C0.474624 -0.0115122 0.324192 0.0351474 0.207507 0.132132C0.090823 0.229116 0.0174448 0.368481 0.00351484 0.519567C-0.0104151 0.670654 0.0362442 0.821086 0.133228 0.93777L2.68727 4.00034L0.218935 7.06291C0.149066 7.14678 0.104683 7.2489 0.0910386 7.35721C0.0773945 7.46551 0.0950596 7.57546 0.141944 7.67403C0.188829 7.77261 0.26297 7.8557 0.355596 7.91346C0.448222 7.97122 0.555455 8.00124 0.664607 7.99996Z" fill="black"/>
</svg>
