<?xml version="1.0" encoding="utf-8"?><svg viewBox="0 0 30 30" xmlns="http://www.w3.org/2000/svg" xmlns:xlink="http://www.w3.org/1999/xlink"><style>:root>svg{display:none}:root>svg:target{display:block}</style><svg viewBox="0 0 9 18" id="angle-left" xmlns="http://www.w3.org/2000/svg"><path d="M7.507 18a1.286 1.286 0 01-1.003-.476L.293 9.811a1.285 1.285 0 010-1.633L6.723.464a1.288 1.288 0 011.98 1.646L2.954 9l5.556 6.892A1.285 1.285 0 017.507 18z"/></svg><svg viewBox="0 0 21 7" id="arrow-right" xmlns="http://www.w3.org/2000/svg"><path d="M20.283 3.783a.4.4 0 000-.566L17.737.672a.4.4 0 00-.565.565L19.434 3.5l-2.262 2.263a.4.4 0 00.565.565l2.546-2.545zM0 3.9h20v-.8H0v.8z"/></svg><svg viewBox="0 0 24 24" id="arrow-up-right" xmlns="http://www.w3.org/2000/svg"><path d="M23.25 2c0-.69-.56-1.25-1.25-1.25H10.75a1.25 1.25 0 100 2.5h10v10a1.25 1.25 0 102.5 0V2zM1.884 23.884l21-21-1.768-1.768-21 21 1.768 1.768z"/></svg><svg viewBox="0 0 24 24" id="close" xmlns="http://www.w3.org/2000/svg"><path d="M6.4 19L5 17.6l5.6-5.6L5 6.4 6.4 5l5.6 5.6L17.6 5 19 6.4 13.4 12l5.6 5.6-1.4 1.4-5.6-5.6L6.4 19z"/></svg><svg viewBox="0 0 24 24" id="cloud" xmlns="http://www.w3.org/2000/svg"><path d="M12 12v9m0-9l-2.5 2m2.5-2l2.5 2M5.034 9.117A4.002 4.002 0 006 17h1" stroke="currentColor" stroke-width="2" stroke-linecap="round" stroke-linejoin="round"/><path d="M15.83 7.138a5.5 5.5 0 00-10.795 1.98S5.188 10 5.5 10.5" stroke="currentColor" stroke-width="2" stroke-linecap="round" stroke-linejoin="round"/><path d="M17 17a5.002 5.002 0 004.285-7.571 5 5 0 00-5.455-2.291L14.5 7.5" stroke="currentColor" stroke-width="2" stroke-linecap="round" stroke-linejoin="round"/></svg><svg viewBox="0 0 30 30" id="instagram" xmlns="http://www.w3.org/2000/svg"><path d="M27.334 10.949a9.255 9.255 0 00-.584-3.116 6.489 6.489 0 00-1.448-2.242 6.423 6.423 0 00-2.223-1.461 9.141 9.141 0 00-3.048-.59c-1.341-.061-1.766-.078-5.171-.078-3.405 0-3.841 0-5.173.077a9.141 9.141 0 00-3.046.59A6.418 6.418 0 004.418 5.59 6.484 6.484 0 002.97 7.833a9.287 9.287 0 00-.584 3.072c-.06 1.354-.078 1.783-.078 5.217 0 3.434 0 3.873.078 5.218.02 1.051.217 2.09.584 3.075.323.84.817 1.604 1.45 2.241a6.423 6.423 0 002.222 1.46 9.11 9.11 0 003.047.633c1.342.06 1.768.079 5.172.079 3.405 0 3.841 0 5.173-.079a9.119 9.119 0 003.048-.59 6.43 6.43 0 002.222-1.46 6.496 6.496 0 001.449-2.242 9.33 9.33 0 00.584-3.075c.06-1.353.078-1.782.078-5.217-.003-3.434-.003-3.87-.08-5.216zM14.852 22.616c-3.561 0-6.446-2.91-6.446-6.5 0-3.592 2.885-6.502 6.445-6.502 1.71 0 3.35.685 4.558 1.904a6.53 6.53 0 011.888 4.597 6.53 6.53 0 01-1.888 4.597 6.418 6.418 0 01-4.557 1.904zm6.702-11.726a1.49 1.49 0 01-1.064-.444 1.516 1.516 0 01-.44-1.072 1.527 1.527 0 01.44-1.072 1.501 1.501 0 011.063-.443 1.491 1.491 0 011.062.443 1.516 1.516 0 01.44 1.072c0 .838-.672 1.516-1.501 1.516z"/><path d="M14.852 20.337c2.312 0 4.187-1.89 4.187-4.222 0-2.333-1.875-4.223-4.187-4.223-2.312 0-4.187 1.89-4.187 4.223 0 2.332 1.875 4.223 4.187 4.223z"/></svg><svg viewBox="0 0 12 16" id="location" xmlns="http://www.w3.org/2000/svg"><path d="M6 16a26.028 26.028 0 01-3-3.138c-1.371-1.698-3-4.228-3-6.638 0-1.23.351-2.434 1.01-3.458A6.053 6.053 0 013.704.474 5.802 5.802 0 017.172.12a5.937 5.937 0 013.073 1.704 6.2 6.2 0 011.302 2.018A6.38 6.38 0 0112 6.224c0 2.41-1.629 4.94-3 6.638A26.029 26.029 0 016 16zM6 3.558c-.682 0-1.336.28-1.818.78a2.717 2.717 0 00-.753 1.886c0 .707.27 1.385.753 1.885.482.5 1.136.781 1.818.781.682 0 1.336-.28 1.818-.78s.753-1.179.753-1.886c0-.707-.27-1.385-.753-1.885A2.526 2.526 0 006 3.558z"/></svg><svg viewBox="0 0 24 25" id="play" xmlns="http://www.w3.org/2000/svg"><g clip-path="url(#hclip0_1_2997)"><path d="M12 2.5c-5.52 0-10 4.48-10 10s4.48 10 10 10 10-4.48 10-10-4.48-10-10-10zm-.56 13.42A.9.9 0 0110 15.2V9.8a.9.9 0 011.44-.72l3.6 2.7a.9.9 0 010 1.44l-3.6 2.7z"/></g><defs><clipPath id="hclip0_1_2997"><rect y=".5" width="24" height="24" rx="1"/></clipPath></defs></svg><svg viewBox="0 0 30 30" id="telegram" xmlns="http://www.w3.org/2000/svg"><path d="M15.577 2.308c-7.33 0-13.27 5.94-13.27 13.269 0 7.33 5.94 13.27 13.27 13.27 7.33 0 13.27-5.94 13.27-13.27 0-7.33-5.94-13.27-13.27-13.27zm6.517 9.09l-2.178 10.263c-.16.728-.594.904-1.198.562L15.4 19.778l-1.6 1.54c-.176.177-.326.327-.668.327l.235-3.377 6.148-5.554c.268-.235-.06-.369-.413-.133l-7.598 4.782-3.274-1.022c-.711-.224-.728-.711.15-1.054l12.793-4.933c.594-.214 1.113.145.92 1.044h.001z"/></svg><svg viewBox="0 0 30 30" id="whatsapp" xmlns="http://www.w3.org/2000/svg"><path d="M2.505 27.5l1.69-6.21A12.442 12.442 0 012.5 15C2.5 8.096 8.096 2.5 15 2.5S27.5 8.096 27.5 15 21.904 27.5 15 27.5a12.442 12.442 0 01-6.287-1.694L2.505 27.5zm7.984-18.365c-.162.01-.32.053-.464.125-.136.077-.26.173-.367.285-.15.141-.235.264-.327.383a3.411 3.411 0 00-.706 2.097c.003.612.163 1.209.413 1.766.51 1.128 1.352 2.322 2.463 3.428.268.266.529.534.81.782a11.81 11.81 0 004.8 2.558l.712.108c.23.013.462-.005.694-.016.365-.018.72-.117 1.042-.288.163-.085.323-.177.479-.276 0 0 .053-.035.156-.112.169-.125.272-.214.412-.36.104-.107.194-.234.263-.377.097-.204.195-.593.235-.917.03-.247.021-.382.017-.466-.005-.134-.116-.273-.237-.331l-.728-.326s-1.087-.474-1.751-.777a.621.621 0 00-.221-.051.602.602 0 00-.473.159v-.003c-.006 0-.09.072-.993 1.166a.437.437 0 01-.46.163 1.767 1.767 0 01-.24-.082c-.154-.066-.208-.09-.314-.137l-.007-.002a7.517 7.517 0 01-1.962-1.25c-.157-.138-.304-.288-.454-.433a7.867 7.867 0 01-1.275-1.585l-.074-.118a1.153 1.153 0 01-.127-.257c-.047-.184.076-.331.076-.331s.304-.332.445-.512a5.48 5.48 0 00.329-.467c.148-.237.194-.481.116-.67-.35-.855-.712-1.706-1.085-2.551-.073-.168-.292-.288-.491-.311-.068-.008-.135-.015-.203-.02a4.23 4.23 0 00-.503.005v.001z"/></svg></svg>